<?xml version="1.0" encoding="UTF-8"?>
<!DOCTYPE svg PUBLIC "-//W3C//DTD SVG 1.1//EN" "http://www.w3.org/Graphics/SVG/1.1/DTD/svg11.dtd">
<svg version="1.1" xmlns="http://www.w3.org/2000/svg" xmlns:xlink="http://www.w3.org/1999/xlink" x="0" y="0" width="863" height="1108" viewBox="0, 0, 863, 1108">
  <defs>
    <clipPath id="Clip_1">
      <path d="M-0,0.04 L862.888,0.04 L862.888,1108 L-0,1108 z"/>
    </clipPath>
  </defs>
  <g id="Layer_1">
    <g clip-path="url(#Clip_1)">
      <path d="M414.003,1084.99 L584.003,1084.99 L577.003,1067.99 L404.503,1047.99 L414.003,1084.99" fill="#FDFDFD"/>
      <path d="M151.114,661.748 C148.54,646.309 145.864,630.878 146.979,615.114 C147.416,608.942 148.517,602.921 150.946,597.176 C156.936,583.011 168.02,576.533 182.963,575.827 C197.323,575.147 206.902,582.387 213.446,594.437 C220.484,607.398 222.887,621.683 224.899,636.035 C227.027,651.212 227.821,666.516 228.884,681.79 C229.053,684.217 229.175,685.792 232.282,685.924 C268.321,687.448 290.363,709.787 298.886,744.071 C305.924,772.383 301.027,798.148 283.127,821.32 C282.034,822.735 280.95,823.948 281.424,826.194 C284.482,840.678 287.323,855.209 290.271,869.717 C290.356,870.133 290.845,870.466 291.411,871.167 C313.029,833.138 334.529,795.318 356.087,757.396 C302.69,733.6 275.18,689.088 257.909,636.379 C247.188,603.661 241.534,569.898 237.857,535.759 C237.804,535.262 237.711,534.758 237.749,534.266 C238.18,528.714 235.369,527.081 230.134,526.933 C221.985,526.704 213.949,525.259 206.044,523.096 C181.093,516.269 170.857,497.472 172.486,472.784 C173.887,451.547 185.96,438.062 205.416,430.639 C207.274,429.93 209.152,429.272 211.378,428.46 C203.566,415.43 197.817,401.698 193.918,387.199 C185.22,354.848 183.576,321.879 185.524,288.639 C187.872,248.572 194.251,209.137 209.104,171.736 C243.903,84.104 307.974,29.202 399.556,8.245 C483.664,-11.001 563.001,4.001 637.054,47.869 C638.749,48.874 640.328,49.803 642.51,49.884 C683.408,51.413 720.374,64.691 753.511,88.344 C790.598,114.816 814.303,151.139 828.725,193.856 C839.672,226.28 844.296,259.774 845.087,293.904 C845.756,322.761 844.534,351.48 839.962,380.014 C836.98,398.622 832.521,416.853 825.572,434.387 C824.341,437.493 824.981,438.931 827.246,440.99 C842.756,455.088 845.46,472.839 840.84,492.197 C836.533,510.245 823.691,519.56 806.475,523.795 C799.19,525.587 791.78,526.896 784.278,526.982 C779.641,527.036 778.271,528.839 777.802,533.389 C773.509,575.044 766.149,616.074 750.886,655.297 C738.28,687.691 720.713,716.774 693.332,739.066 C687.64,743.701 681.707,748.041 675.23,751.456 C671.594,753.373 672.23,754.345 674.784,756.723 C702.943,782.932 728.029,811.736 748.26,844.582 C754.63,854.925 760.494,865.552 765.162,876.779 C766.513,880.029 768.245,881.598 772.004,881.956 C783.099,883.014 794.15,884.568 805.203,886.041 C811.755,886.914 815.161,891.426 814.942,898.845 C814.286,920.971 813.617,943.097 812.876,965.221 C811.924,993.666 810.906,1022.11 809.9,1050.55 C809.651,1057.6 806.89,1060.27 799.848,1060.88 C781.444,1062.48 763.052,1064.2 744.65,1065.83 C743.073,1065.96 741.801,1066.18 740.931,1067.74 C732.51,1082.8 718.47,1090.41 703.039,1096.08 C669.232,1108.51 634.931,1112.5 599.828,1101.84 C594.886,1100.34 590.096,1098.45 585.762,1095.58 C581.926,1093.05 578.423,1089.91 577.532,1085.32 C576.787,1081.47 574.785,1081.07 571.489,1080.56 C522.183,1072.87 472.899,1065.04 423.637,1057.08 C419.179,1056.36 418.199,1057.37 419.075,1061.7 C420.691,1069.69 421.874,1077.76 423.246,1085.8 C424.22,1091.5 421.606,1096.05 416.837,1096.92 C411.119,1097.97 407.053,1094.92 405.995,1088.7 C404.265,1078.53 402.467,1068.37 400.95,1058.17 C400.438,1054.73 399.278,1053.21 395.502,1052.69 C380.674,1050.66 365.907,1048.18 351.129,1045.8 C345.281,1044.85 342.872,1041.18 343.122,1034.05 C343.757,1015.92 344.387,997.786 344.99,979.655 C345.025,978.584 345.591,977.391 344.339,976.154 C335.789,986.829 327.001,997.195 316.875,1006.31 C308.801,1013.57 300.201,1020.07 290.037,1024.25 C273.938,1030.87 259.859,1027.84 247.444,1015.77 C235.193,1003.85 226.738,989.358 219.107,974.345 C202.714,942.092 190.965,908.013 180.195,873.582 C179.15,870.242 177.716,869.099 174.225,868.524 C138.428,862.625 113.277,834.077 110.99,797.19 C110.016,781.484 110.715,765.901 114.673,750.615 C115.462,747.566 114.042,745.947 112.35,744.085 C99.028,729.422 85.277,715.125 73.611,699.04 C65.771,688.23 58.688,677.058 55.646,663.759 C51.731,646.638 58.235,633.819 71.847,623.986 C84.979,614.5 98.701,614.274 112.541,622.371 C124.751,629.515 133.401,640.33 141.637,651.485 C144.598,655.496 147.307,659.693 150.132,663.805 C152.126,663.915 151.405,662.729 151.114,661.748" fill="#6E4100"/>
      <path d="M807.136,821.035 C800.379,821.027 796.655,818.128 795.156,811.53 C792.801,801.158 790.407,790.793 788.292,780.372 C787.736,777.637 786.455,776.545 783.919,775.877 C775.566,773.675 767.266,771.273 758.955,768.913 C754.137,767.546 751.178,763.441 751.076,758.105 C750.979,752.972 753.991,748.426 758.681,747.052 C766.812,744.67 774.931,742.205 783.168,740.251 C786.693,739.414 787.969,737.634 788.63,734.352 C790.63,724.418 792.872,714.533 795.068,704.639 C796.548,697.971 800.688,694.684 807.358,694.76 C813.878,694.834 817.606,697.922 819.104,704.544 C821.376,714.594 823.759,724.622 825.807,734.718 C826.462,737.951 827.858,739.42 831.089,740.216 C839.15,742.202 847.101,744.637 855.088,746.919 C860.413,748.441 862.82,751.76 862.886,757.574 C862.957,763.814 860.661,767.362 855.321,768.914 C847.185,771.278 839.055,773.677 830.848,775.767 C827.871,776.524 826.471,777.851 825.844,780.924 C823.755,791.177 821.335,801.362 819.041,811.573 C817.533,818.282 814.057,821.043 807.136,821.035" fill="#FFCF00"/>
      <path d="M56.051,562.915 C49.379,562.934 45.454,559.82 44.024,553.414 C41.744,543.199 39.27,533.022 37.26,522.754 C36.639,519.579 35.254,518.371 32.294,517.617 C24.249,515.567 16.282,513.202 8.303,510.897 C2.893,509.333 0.065,505.523 0.001,499.931 C-0.065,494.11 2.747,490.326 8.486,488.669 C16.306,486.411 24.115,484.103 31.987,482.04 C35.003,481.25 36.659,480.097 37.311,476.653 C39.259,466.373 41.759,456.198 44.044,445.981 C45.421,439.823 49.743,436.475 56.195,436.57 C62.498,436.662 66.605,439.933 67.921,445.865 C70.224,456.248 72.702,466.595 74.76,477.026 C75.348,480.004 76.717,481.191 79.413,481.91 C87.598,484.092 95.742,486.432 103.882,488.778 C109.249,490.324 112,494.16 111.976,499.836 C111.952,505.56 109.251,509.293 103.783,510.87 C95.484,513.264 87.177,515.638 78.828,517.846 C76.399,518.488 75.368,519.647 74.854,522.157 C72.719,532.573 70.299,542.932 67.987,553.312 C66.543,559.797 62.693,562.896 56.051,562.915" fill="#FFCF00"/>
    </g>
    <path d="M151.114,661.748 C151.946,662.965 152.657,664.355 151.423,665.523 C151.064,665.863 150.395,664.557 150.132,663.805 C150.459,663.119 150.786,662.433 151.114,661.748" fill="#D6CABE"/>
    <path d="M247.771,414.719 C246.327,385.076 246.265,355.463 249.964,325.956 C255.364,282.885 268.056,242.741 298.076,209.928 C324.417,181.137 357.404,163.181 394.411,152.033 C415.583,145.656 437.329,143.038 459.341,142.153 C461.003,142.087 462.12,142.569 463.164,143.89 C491.206,179.386 529.043,200.92 569.878,217.806 C622.728,239.66 677.887,251.929 734.969,255.362 C739.029,255.606 741.128,256.974 742.807,260.541 C761.069,299.369 768.999,340.335 768.001,383.068 C767.146,419.673 766.412,456.291 763.878,492.833 C760.488,541.724 754.801,590.247 738.882,636.953 C728.857,666.366 715.056,693.638 692.741,715.925 C668.974,739.662 639.918,751.807 606.859,754.81 C591.953,756.164 576.961,756.539 562.022,757.57 C559.562,757.74 557.891,756.765 556.086,755.595 C545.338,748.625 534.596,741.646 523.84,734.688 C517.066,730.307 512.882,731.239 508.455,738.053 C504.738,743.774 500.936,749.441 497.329,755.23 C496.123,757.164 494.727,757.869 492.478,757.76 C460.23,756.19 427.848,755.676 395.931,750.552 C351.279,743.384 318.582,718.485 296.008,679.779 C278.952,650.535 269.509,618.585 262.994,585.634 C255.645,548.47 252.5,510.832 250.524,473.073 C249.507,453.627 248.683,434.171 247.771,414.719" fill="#FEF5E2"/>
    <path d="M456.053,18.956 C457.378,18.672 458.703,18.389 460.028,18.106 C462.013,18.61 463.993,18.986 465.925,17.907 C471.665,16.761 477.418,17.906 483.101,18.226 C503.534,19.375 523.754,22.275 543.613,27.38 C578.096,36.245 610.148,50.537 639.679,70.454 C647.058,75.43 648.543,75.322 654.863,69.002 C655.895,67.969 656.806,67.949 657.947,68.147 C689.537,73.624 719.018,84.416 744.863,103.752 C775.028,126.321 795.911,155.858 809.073,191.03 C818.64,216.593 823.803,243.056 826.109,270.2 C827.576,287.475 828.406,304.759 827.725,322.058 C826.474,353.844 823.276,385.387 813.643,415.93 C812.295,420.206 811.573,425.337 808.721,428.306 C805.546,431.614 801.022,427.09 796.94,426.983 C795.295,426.939 793.658,426.497 792.02,426.221 C784.724,424.996 784.898,424.991 784.767,417.803 C784.465,401.148 786.382,384.541 785.712,367.882 C784.188,329.964 776.899,293.346 761.181,258.617 C760.912,258.022 760.742,257.382 760.505,256.706 C761.766,255.382 763.339,256.059 764.707,255.876 C769.667,255.215 772.814,252.065 772.978,247.472 C773.148,242.731 770.444,239.353 765.533,238.363 C764.249,238.104 762.889,238.166 761.564,238.174 C692.462,238.635 626.602,223.777 563.596,195.869 C534.14,182.822 507.044,166.079 484.833,142.31 C474.629,131.39 466.408,119.146 461.047,105.094 C458.858,99.356 454.303,97.014 449.35,98.944 C444.378,100.882 442.56,105.643 444.696,111.367 C445.568,113.703 446.681,115.948 447.575,118.276 C448.397,120.418 450.032,122.241 450.196,124.952 C431.208,126.26 412.487,128.837 394.158,133.901 C358.661,143.71 326.575,159.813 298.874,184.404 C267.48,212.273 248.98,247.515 239.054,287.723 C233.096,311.862 230.919,336.459 229.651,361.267 C228.696,379.938 230.603,398.506 229.879,417.12 C227.756,416.942 227.322,415.202 226.816,413.655 C221.611,397.745 219.028,381.355 217.551,364.72 C216.695,355.082 216.477,345.453 216.633,335.806 C217.23,298.669 222.907,262.278 232.523,226.432 C238.283,204.959 246.017,184.238 255.891,164.371 C267.115,141.789 280.605,120.629 297.096,101.439 C319.888,74.916 346.911,53.967 378.617,39.169 C399.396,29.471 420.974,22.372 443.904,19.9 C445.882,19.687 447.795,19.016 449.806,18.998 C451.891,19.405 453.965,18.081 456.053,18.956" fill="#868C91"/>
    <path d="M196.972,869.281 C223.247,866.334 245.71,855.975 266.148,839.27 C268.123,848.763 269.999,857.638 271.811,866.526 C273.87,876.629 275.981,886.723 277.851,896.861 C278.689,901.403 280.656,904.815 285.407,905.587 C290.129,906.355 293.105,903.817 295.392,899.783 C319.81,856.71 344.32,813.688 368.79,770.644 C372.902,763.412 372.873,763.385 380.688,765.398 C392.659,768.481 404.894,769.84 417.175,770.702 C420.184,770.913 421.211,771.952 422.222,774.727 C425.965,785.01 430.165,795.125 434.318,805.616 C430.769,805.89 427.898,804.431 424.902,803.797 C417.688,802.271 413.875,804.484 412.07,811.696 C407.673,829.264 403.282,846.834 399.029,864.438 C398.285,867.513 397.376,869.078 393.64,869.178 C382.67,869.469 371.716,870.375 360.757,871.051 C352.441,871.565 348.383,875.687 348.123,883.966 C347.543,902.425 346.998,920.885 346.43,939.345 C346.369,941.331 346.331,943.29 345.102,945.059 C331.491,964.641 317.26,983.684 298.504,998.796 C293.431,1002.88 287.942,1006.33 281.807,1008.61 C274.485,1011.34 267.84,1010.35 261.828,1005.09 C256.129,1000.11 251.437,994.305 247.322,988.024 C230.989,963.087 220.2,935.554 210.082,907.738 C205.493,895.122 201.401,882.325 196.972,869.281" fill="#FEFEFE"/>
    <path d="M163.878,846.842 C159.605,846.758 156.41,844.162 153.263,841.858 C138.91,831.347 131.077,817.052 128.926,799.435 C126.835,782.315 128.428,765.533 133.176,749.039 C134.498,744.445 133.199,741.045 130.21,737.675 C116.625,722.357 102.141,707.815 89.818,691.406 C82.511,681.675 75.681,671.662 72.623,659.58 C70.31,650.44 74.5,644.277 81.244,638.935 C87.785,633.752 94.583,632.597 102.075,636.656 C110.942,641.459 117.367,648.876 123.471,656.614 C133.699,669.582 141.71,684.038 150.913,697.694 C153.418,701.411 156.214,704.955 159.119,708.373 C162.325,712.146 166.372,712.883 170.819,710.627 C175.179,708.414 176.809,705.036 176.198,699.99 C173.753,679.805 167.932,660.235 165.473,640.066 C164.161,629.307 163.05,618.537 165.864,607.815 C168.488,597.815 174.942,592.84 185.075,593.185 C190.644,593.375 194.247,596.683 196.994,601.133 C202.166,609.514 204.22,618.953 205.953,628.451 C209.696,648.97 210.422,669.794 211.934,690.532 C212.594,699.574 214.993,702.423 224.075,702.817 C236.846,703.37 249.135,704.91 260.076,712.614 C272.681,721.49 278.14,734.47 281.823,748.485 C290.166,780.236 278.568,805.343 254.682,825.649 C234.093,843.153 210.415,853.08 182.845,851.864 C178.508,851.673 174.256,850.861 170.082,849.66 C170.15,847.63 172.07,847.658 173.217,846.818 C177.479,844.907 182.005,843.714 186.331,841.956 C189.92,840.497 193.208,838.613 196.253,836.249 C205.235,829.274 206.565,817.775 199.411,808.856 C194.231,802.399 194.209,802.378 200.103,796.402 C202.103,794.375 203.857,792.168 205.486,789.848 C207.147,787.48 208.998,787.143 211.354,789.018 C224.793,799.707 240.556,802.059 257.055,801.477 C263.034,801.266 265.866,798.327 265.552,793.311 C265.255,788.562 261.66,786.077 255.871,786.438 C245.572,787.081 235.579,785.787 226.319,780.96 C221.647,778.525 216.975,775.386 217.029,769.554 C217.086,763.373 219.676,758.007 225.291,754.438 C232.501,749.856 240.58,749.09 248.755,748.594 C251.411,748.432 254.099,748.793 256.735,748.322 C260.308,747.684 262.3,745.373 262.697,741.868 C263.077,738.503 261.434,736.082 258.435,734.653 C256.303,733.638 253.961,733.06 251.634,733.308 C242.726,734.258 233.732,734.397 225.129,737.643 C215.716,741.195 208.919,747.241 204.808,756.383 C202.236,762.101 201.696,762.203 196.542,758.744 C183.237,749.813 168.722,745.446 152.606,747.336 C149.62,747.687 146.688,748.396 143.936,749.624 C139.147,751.759 137.138,755.519 138.542,759.48 C140.032,763.683 143.571,765.381 148.77,763.666 C162.699,759.068 175.093,763.283 186.804,770.336 C194.9,775.212 195.123,780.156 188.448,786.765 C184.091,791.078 178.72,793.703 173.157,796.012 C171.774,796.587 170.317,796.976 168.957,797.616 C165.687,799.155 164.18,801.809 164.721,805.31 C165.289,808.985 167.415,811.305 171.392,811.526 C176.291,811.797 180.992,812.801 184.993,815.852 C190.254,819.864 189.934,823.118 184.103,826.276 C179.974,828.512 175.52,829.894 171.111,831.415 C163.583,834.011 162.363,836.298 164.231,844.087 C164.463,845.057 164.82,846.029 163.878,846.842" fill="#FEF5E2"/>
    <path d="M517.994,898.711 C484.15,893.418 450.31,888.09 416.452,882.886 C413.367,882.412 412.707,881.525 413.521,878.389 C417.951,861.33 422.19,844.219 426.314,827.083 C427.126,823.708 427.984,822.624 431.898,823.612 C488.975,838.012 546.109,852.182 603.228,866.411 C639.694,875.496 676.157,884.589 712.622,893.676 C714.173,894.062 715.95,893.958 717.159,895.883 C713.466,897.666 709.568,897.095 705.922,897.437 C670.625,900.751 635.308,903.853 599.996,907.005 C599.339,907.064 598.669,906.987 598.005,906.974 C596.069,905.321 594.881,903.096 593.487,901.033 C577.335,877.138 541.956,874.199 522.073,895.109 C520.817,896.429 519.77,897.981 517.994,898.711" fill="#DEDAAC"/>
    <path d="M449.803,19.841 C402.49,26.108 360.524,44.509 324.531,75.89 C279.302,115.322 251.502,165.594 235.079,222.602 C222.698,265.582 216.504,309.466 218.174,354.266 C218.92,374.272 221.774,394.012 228.016,413.137 C228.467,414.52 229.25,415.794 229.878,417.119 C229.927,417.703 229.975,418.286 230.024,418.869 C230.305,420.391 231.646,422.188 228.963,422.937 C217.108,406.152 210.564,387.088 207.32,367.173 C195.84,296.685 202.87,227.788 232.28,162.713 C266.624,86.719 327.307,41.959 408.248,24.043 C420.922,21.238 433.751,19.266 446.767,18.835 C447.893,18.827 449.483,17.416 449.803,19.841" fill="#FEFEFE"/>
    <path d="M554.877,1045.91 C555.697,1022.99 556.639,999.413 557.174,975.818 C557.339,968.544 557.811,961.227 557.89,953.925 C557.953,948.142 555.175,944.906 549.468,944.011 C531.805,941.244 514.117,938.637 496.459,935.843 C474.388,932.351 452.344,928.689 430.274,925.192 C415.558,922.86 400.826,920.624 386.082,918.476 C380.502,917.664 376.277,921.436 376.01,927.497 C375.731,933.796 375.454,940.097 375.166,946.391 C374.373,963.664 374.686,980.99 373.756,998.252 C373.237,1007.89 372.976,1017.51 372.98,1027.15 C372.982,1030.43 371.577,1031.06 368.734,1030.88 C361.348,1030.41 360.686,1030.06 361.034,1022.85 C362.052,1001.77 362.446,980.674 363.137,959.585 C363.757,940.662 364.866,921.753 364.982,902.811 C364.987,901.978 364.962,901.144 364.99,900.312 C365.239,892.94 365.544,892.672 372.595,893.791 C401.86,898.436 431.121,903.1 460.387,907.734 C492.106,912.757 523.829,917.756 555.55,922.763 C559.801,923.434 564.043,924.164 568.308,924.727 C570.505,925.017 571.308,926.165 570.632,928.118 C569.726,930.734 570.044,933.394 569.982,936.039 C569.596,952.497 569.571,968.971 568.804,985.411 C567.875,1005.33 567.088,1025.24 566.79,1045.18 C566.722,1049.79 565.794,1054.41 565.945,1059.07 C566.018,1061.31 565.078,1062.05 562.841,1061.4 C561.429,1060.99 559.897,1060.91 558.413,1060.85 C555.931,1060.75 554.817,1059.55 554.861,1057.07 C554.923,1053.57 554.877,1050.07 554.877,1045.91" fill="#9C6F36"/>
    <path d="M537.992,1028.85 C538.747,1035.83 536.501,1044.72 536.96,1053.71 C537.08,1056.06 536.193,1057.07 533.703,1056.66 C514.275,1053.48 494.848,1050.29 475.401,1047.22 C455.134,1044.03 434.845,1040.96 414.565,1037.84 C407.694,1036.79 400.813,1035.79 393.957,1034.65 C391.564,1034.25 389.437,1033.4 389.967,1030.16 C392.018,1017.65 389.977,1004.94 391.737,992.386 C392.205,989.048 393.558,988.508 396.221,988.933 C415.829,992.067 435.427,995.264 455.041,998.358 C475.471,1001.58 495.917,1004.71 516.355,1007.88 C522.732,1008.88 529.094,1009.98 535.487,1010.86 C537.814,1011.17 538.009,1012.55 537.999,1014.34 C537.975,1018.51 537.992,1022.67 537.992,1028.85" fill="#9C6F36"/>
    <path d="M642.105,1090.69 C629.613,1090.77 614.541,1088.82 600.07,1083.2 C598.532,1082.6 597.097,1081.73 595.632,1080.95 C594.127,1080.15 593.651,1078.79 593.693,1077.19 C593.741,1075.28 595.222,1074.68 596.641,1074.26 C601.393,1072.84 606.199,1073.15 610.947,1074.26 C617.426,1075.78 621.257,1074.53 623.273,1070.03 C625.33,1065.44 623.814,1061.71 618.406,1057.98 C617.585,1057.42 616.824,1056.77 616.012,1056.19 C614.978,1055.45 614.329,1054.55 614.768,1053.23 C615.241,1051.82 616.521,1051.89 617.668,1051.83 C622.589,1051.56 627.238,1052.9 631.783,1054.51 C636.318,1056.11 640.773,1057.95 645.206,1059.82 C650.91,1062.23 654.983,1061.71 657.834,1058 C660.711,1054.26 660.365,1050.85 656.565,1045.79 C654.241,1042.7 652.616,1039.32 651.67,1035.53 C650.81,1032.08 651.593,1030.95 655.205,1031.88 C663.718,1034.06 671.44,1037.76 678.208,1043.38 C680.715,1045.46 683.3,1047.21 686.766,1046.55 C692.469,1045.46 695.383,1040.26 693.388,1034.31 C691.153,1027.65 689.539,1020.9 689.079,1013.88 C688.903,1011.2 689.299,1008.58 689.884,1005.96 C690.683,1002.39 692.685,1001.05 696.391,1001.66 C710.877,1004.02 727.687,1020.67 729.986,1035.11 C732.638,1051.76 724.649,1066.42 708.466,1074.6 C691.103,1083.37 671.706,1088.22 642.105,1090.69" fill="#FEF5E2"/>
    <path d="M163.878,846.842 C163.617,846.083 163.442,845.281 163.084,844.571 C159.896,838.247 161.934,833.187 168.728,830.869 C174.071,829.046 179.593,827.678 184.506,824.771 C188.796,822.232 188.933,820.456 185.052,817.293 C181.426,814.338 177.116,813.268 172.524,813.042 C166.902,812.766 163.614,810.084 163.035,805.406 C162.468,800.832 165.071,797.44 170.414,795.695 C177.805,793.281 184.515,789.674 189.71,783.775 C193.474,779.502 193.447,776.512 188.802,773.319 C176.62,764.947 163.6,759.797 148.53,765.182 C143.827,766.863 139.034,764.895 137.237,760.7 C135.304,756.188 137.153,751.195 141.901,749.002 C152.395,744.153 163.284,744.869 174.146,747.354 C184.164,749.645 193.272,753.997 201.553,760.876 C203.35,756.218 205.151,751.845 208.125,748.09 C216.052,738.083 227.135,734.486 239.14,733.079 C244.572,732.442 250.115,732.343 255.585,732.561 C261.035,732.778 264.494,736.638 264.381,741.47 C264.262,746.553 260.507,749.914 254.688,749.869 C247.506,749.813 240.342,749.987 233.405,752.005 C227.311,753.777 222.047,756.743 219.589,763.157 C216.759,770.543 217.916,774.737 224.792,778.709 C234.268,784.183 244.679,786.085 255.523,785.272 C259.023,785.01 262.22,785.154 264.816,787.667 C267.318,790.09 267.815,793.206 266.92,796.448 C265.869,800.254 263.016,802.364 259.27,802.622 C241.727,803.831 225.036,801.329 210.727,790.107 C208.356,788.247 207.444,788.355 206.089,790.92 C203.961,794.948 200.726,798.126 197.186,800.929 C195.602,802.183 195.418,803.11 197.044,804.355 C197.698,804.856 198.273,805.469 198.841,806.072 C208.944,816.788 207.332,830.844 195.05,838.948 C188.292,843.407 180.509,845.403 172.987,848.021 C170.537,848.576 168.094,848.818 165.685,847.826 C165.083,847.498 164.48,847.17 163.878,846.842" fill="#6E4100"/>
    <path d="M585.963,984.602 C586.807,980.37 587.061,974.736 586.876,969.088 C586.799,966.711 587.87,966.014 590.14,965.838 C606.484,964.568 622.829,963.286 639.154,961.783 C659.096,959.948 679.008,957.78 698.952,955.97 C715.941,954.427 732.966,953.288 749.958,951.781 C762.483,950.67 774.981,949.252 787.491,947.972 C787.657,947.955 787.823,947.947 787.988,947.929 C795.675,947.102 796.387,947.536 795.759,955.325 C795.372,960.123 794.8,964.899 794.947,969.714 C795.02,972.104 793.949,972.768 791.685,972.963 C777.503,974.19 763.331,975.539 749.16,976.901 C736.312,978.136 723.474,979.486 710.622,980.693 C702.047,981.5 693.453,982.101 684.874,982.875 C671.194,984.11 657.523,985.449 643.842,986.677 C631.47,987.787 619.092,988.824 606.714,989.86 C601.595,990.289 596.451,990.482 591.349,991.055 C585.912,991.666 585.928,991.807 585.963,984.602" fill="#9C6F36"/>
    <path d="M745.944,878.039 C743.331,877.714 741.812,876.091 740.066,874.959 C691.54,843.503 643.024,812.034 594.56,780.484 C593.169,779.579 590.394,779.428 591.25,776.382 C591.987,773.759 593.84,773.33 596.148,773.227 C615.352,772.364 634.151,769.325 652.203,762.488 C653.72,761.914 654.663,762.148 655.753,763.14 C692.039,796.158 724.171,832.46 745.858,877.026 C745.923,877.16 745.889,877.342 745.944,878.039" fill="#FEFEFE"/>
    <path d="M587.917,937.117 C587.917,936.451 587.914,935.785 587.918,935.119 C587.979,925.048 588.005,925.437 597.966,924.776 C611.342,923.888 624.671,922.293 638.025,921.065 C646.605,920.276 655.199,919.643 663.779,918.865 C677.63,917.61 691.47,916.241 705.324,915.016 C718.032,913.893 730.759,912.976 743.464,911.823 C756.324,910.657 769.168,909.321 782.017,908.044 C785.974,907.651 789.983,908.125 793.91,907.011 C795.907,906.445 796.968,907.585 796.937,909.759 C796.856,915.42 796.882,921.084 796.821,926.746 C796.799,928.732 795.737,929.701 793.716,929.875 C782.496,930.846 771.279,931.844 760.067,932.896 C747.046,934.117 734.034,935.438 721.013,936.651 C712.433,937.45 703.839,938.091 695.259,938.879 C681.738,940.12 668.236,941.58 654.702,942.645 C646.773,943.269 638.856,943.925 630.94,944.73 C617.92,946.052 604.834,946.717 591.812,948.021 C588.188,948.384 587.547,947.206 587.823,944.109 C588.03,941.796 587.864,939.449 587.864,937.117 C587.882,937.117 587.9,937.117 587.917,937.117" fill="#9C6F36"/>
    <path d="M634.844,855.919 C611.445,850.191 588.034,844.513 564.651,838.721 C531.098,830.41 497.582,821.95 464.006,813.739 C459.813,812.714 458.592,811.691 460.807,807.388 C464.299,800.605 467.359,793.557 470.024,786.406 C471.633,782.088 473.673,782.997 476.759,784.361 C522.208,804.448 567.697,824.446 613.17,844.48 C621.076,847.963 628.954,851.512 636.845,855.031 C636.854,856.851 635.854,856.396 634.844,855.919" fill="#DEDAAC"/>
    <path d="M725.693,996.774 C738.053,995.737 749.415,994.848 760.763,993.81 C769.82,992.982 778.874,992.092 787.901,990.999 C793.247,990.352 794.041,990.781 793.928,996.21 C793.625,1010.82 793.193,1025.43 792.937,1040.04 C792.89,1042.7 792.159,1043.75 789.292,1044 C776.772,1045.1 764.271,1046.45 751.777,1047.83 C748.006,1048.24 747.74,1046.19 747.91,1043.33 C748.65,1030.89 745.173,1019.62 737.727,1009.74 C734.457,1005.4 730.329,1001.71 725.693,996.774" fill="#9C6F36"/>
    <path d="M661.893,846.687 C647.187,840.216 632.48,833.748 617.776,827.273 C581.428,811.268 545.115,795.182 508.688,779.358 C504.502,777.54 504.414,776.118 506.834,772.753 C510.521,767.628 513.933,762.282 517.137,756.839 C518.98,753.707 520.356,753.287 523.606,755.411 C564.126,781.893 604.763,808.196 645.368,834.548 C651.061,838.242 656.746,841.95 662.435,845.652 C662.254,845.997 662.074,846.342 661.893,846.687" fill="#DEDAAC"/>
    <path d="M189.805,475.327 C189.676,464.284 195.422,455.066 206.632,449.229 C213.512,445.647 220.979,444.17 228.633,443.323 C231.224,443.036 231.775,443.994 231.83,446.295 C232.314,466.244 233.645,486.15 235.067,506.048 C235.279,509.021 234.852,510.38 231.456,509.755 C225.579,508.674 219.575,508.211 213.755,506.909 C196.864,503.129 189.854,494.213 189.805,475.327" fill="#FEF5E2"/>
    <path d="M825.057,477.552 C825.005,494.262 818.044,503.191 801.749,506.837 C795.77,508.175 789.624,508.762 783.561,509.733 C781.166,510.116 780.118,509.731 780.373,506.774 C782.103,486.744 783.035,466.663 783.676,446.572 C783.769,443.635 784.64,443.075 787.461,443.45 C793.584,444.263 799.58,445.39 805.299,447.8 C818.864,453.517 825.101,462.89 825.057,477.552" fill="#FEF5E2"/>
    <path d="M583.946,1060.53 C583.614,1044.27 585.545,1028.86 584.997,1013.4 C584.888,1010.32 586.744,1009.1 589.728,1008.86 C610.201,1007.23 630.669,1005.54 651.132,1003.79 C657.066,1003.28 662.979,1002.51 668.901,1001.87 C671.255,1001.61 672.502,1001.95 672.07,1005.01 C671.564,1008.61 671.831,1012.33 671.9,1015.99 C671.946,1018.46 671.034,1018.88 668.909,1017.86 C662.518,1014.8 655.518,1014.2 648.667,1013.07 C640.636,1011.74 635.391,1016.78 633.948,1026.76 C633.498,1029.88 635.641,1034.36 632.679,1035.77 C630.234,1036.93 626.308,1035.06 623.063,1034.42 C613.67,1032.55 604.302,1036.31 599.588,1043.72 C598.284,1045.77 597.335,1048.11 597.412,1050.25 C597.597,1055.4 594.874,1057.1 590.462,1057.91 C588.415,1058.28 586.515,1059.46 583.946,1060.53" fill="#9C6F36"/>
    <path d="M474.496,983.496 C485.839,969.014 486.13,964.364 476.401,951.007 C482.647,950.702 488.347,952.43 494.08,953.209 C507.991,955.1 521.796,957.765 535.698,959.737 C539.285,960.246 539.903,961.74 540.023,964.879 C540.355,973.533 538.859,982.093 538.989,990.719 C539.031,993.443 537.94,993.45 535.633,993.075 C521.605,990.795 507.54,988.74 493.493,986.572 C487.292,985.615 481.105,984.569 474.496,983.496" fill="#9C6F36"/>
    <path d="M443.669,978.639 C427.113,976.017 410.859,973.38 394.577,970.925 C391.878,970.518 391.691,968.9 392.053,967.068 C393.687,958.826 392.815,950.504 392.858,942.229 C392.879,938.116 394.626,937.383 397.993,937.933 C416.661,940.977 435.329,944.023 454.404,947.134 C439.834,954.098 436.759,965.123 443.669,978.639" fill="#9C6F36"/>
    <path d="M517.994,898.711 C525.345,887.225 536.617,882.083 549.433,880.058 C568.053,877.116 588.252,887.575 597.029,904.187 C597.484,905.048 597.685,906.042 598.005,906.974 C585.767,909.837 573.708,907.847 561.614,905.782 C547.095,903.303 532.536,901.058 517.994,898.711" fill="#FEFEFE"/>
    <path d="M440.235,772.644 C445.269,772.918 449.509,773.203 453.755,773.358 C456.446,773.456 456.19,774.635 455.313,776.542 C452.978,781.617 450.799,786.764 448.174,792.761 C445.424,785.792 442.973,779.583 440.235,772.644" fill="#FDFDFC"/>
    <path d="M465.677,966.517 C464.87,968.252 463.435,969.021 461.645,968.853 C460.012,968.7 457.89,968.391 457.936,966.355 C457.983,964.323 460.061,963.994 461.747,964.044 C463.437,964.093 464.978,964.703 465.677,966.517" fill="#F4F1ED"/>
    <path d="M449.803,19.841 C448.791,19.506 447.779,19.171 446.767,18.836 C449.873,18.04 452.983,16.994 456.053,18.956 C453.988,19.383 452.009,20.408 449.803,19.841" fill="#D3CBC2"/>
    <path d="M165.685,847.826 C168.119,847.891 170.553,847.956 172.987,848.021 C172.019,848.568 171.05,849.114 170.082,849.66 C168.531,849.253 166.76,849.375 165.685,847.826" fill="#E6D7BF"/>
    <path d="M465.925,17.907 C464.019,19.75 462.035,19.261 460.028,18.106 C461.993,18.039 463.959,17.973 465.925,17.907" fill="#C0C4C5"/>
    <path d="M228.963,422.937 C230.608,421.918 229.417,420.159 230.024,418.869 C231.029,420.149 230.906,421.68 230.959,423.164 C230.981,423.789 230.979,424.669 230.076,424.419 C229.605,424.289 229.328,423.454 228.963,422.937" fill="#DBD0C5"/>
    <path d="M634.844,855.919 C635.511,855.623 636.178,855.327 636.845,855.031 C637.825,855.385 638.804,855.74 639.784,856.094 C639.966,856.991 639.766,857.47 638.742,857.048 C637.376,856.903 635.954,856.948 634.844,855.919" fill="#CEC697"/>
    <path d="M638.742,857.048 C639.089,856.73 639.437,856.412 639.784,856.094 C640.77,856.503 641.755,856.911 642.741,857.32 C642.661,857.691 642.58,858.062 642.5,858.433 C641.247,857.971 639.995,857.51 638.742,857.048" fill="#B6A675"/>
    <path d="M323.673,478.731 C342.754,478.202 356.887,486.316 366.899,502.293 C373.965,513.568 372.59,525.119 363.646,534.877 C348.54,551.359 329.938,554.559 309.1,550.479 C299.537,548.607 290.455,545.557 283.055,538.931 C273.705,530.557 269.897,519.567 275.361,508.152 C285.076,487.855 301.978,479.297 323.673,478.731" fill="#FFE0C5"/>
    <path d="M702.836,549.179 C685.819,548.751 672.841,546.599 661.899,537.875 C652.574,530.44 648.991,519.103 654.225,508.147 C661.993,491.888 675.336,484.145 692.634,481.852 C708.129,479.798 721.499,483.897 732.511,495.072 C736.759,499.382 739.876,504.525 741.783,510.265 C745.487,521.412 740.288,529.77 732.449,536.691 C723.094,544.949 712.394,550.336 702.836,549.179" fill="#FFE0C5"/>
    <path d="M512.464,682.369 C481.58,682.072 452.483,676.2 427.298,657.19 C423.036,653.973 418.985,650.471 415.861,646.107 C413.395,642.661 414.082,638.27 417.269,635.85 C420.692,633.25 424.376,633.343 427.18,636.444 C441.577,652.367 460.172,660.359 480.636,664.239 C506.815,669.204 532.995,669.13 558.461,660.236 C581.47,652.2 597.811,637.219 604.768,613.159 C606.07,608.656 609.663,606.768 614.02,607.885 C617.869,608.871 620.032,612.298 619.089,616.822 C616.514,629.18 610.351,639.758 602.081,649.102 C586.248,666.992 565.691,675.881 542.626,679.955 C532.585,681.729 522.444,681.961 512.464,682.369" fill="#6E4100"/>
    <path d="M403.087,447.25 C393.039,440.394 383.731,434.056 374.438,427.698 C370.933,425.3 369.335,422.028 370.415,417.815 C371.384,414.034 374.046,411.956 377.831,411.341 C380.464,410.914 382.7,412.007 384.804,413.442 C398.808,422.994 412.809,432.55 426.82,442.092 C430.07,444.305 432.134,447.147 431.505,451.266 C430.883,455.336 428.229,457.585 424.44,458.816 C409.134,463.787 393.853,468.836 378.545,473.798 C372.003,475.918 367.156,473.943 365.494,468.644 C363.833,463.346 366.682,459.129 373.305,456.98 C382.928,453.859 392.539,450.698 403.087,447.25" fill="#6E4100"/>
    <path d="M622.804,447.32 C633.806,450.924 644.051,454.267 654.287,457.637 C658.421,458.998 660.681,462.078 660.6,466.244 C660.523,470.171 658.324,473.116 654.371,474.406 C652.21,475.112 650.153,474.697 648.048,474.009 C632.284,468.856 616.502,463.757 600.728,458.633 C597.112,457.458 594.659,455.107 594.158,451.263 C593.663,447.463 595.27,444.538 598.457,442.373 C612.749,432.665 626.975,422.86 641.305,413.209 C646.044,410.018 651.161,410.944 654.022,415.12 C656.937,419.373 655.953,424.368 651.227,427.676 C643.063,433.393 634.772,438.928 626.543,444.553 C625.478,445.281 624.465,446.087 622.804,447.32" fill="#6E4100"/>
    <path d="M607.668,270.77 C617.367,270.88 624.487,274.701 630.272,281.185 C633.701,285.028 633.571,289.805 630.175,292.702 C626.949,295.454 622.603,294.94 619.077,291.405 C618.142,290.468 617.246,289.466 616.198,288.67 C609.908,283.892 603.44,285.088 599.246,291.752 C595.978,296.945 592.372,298.317 588.225,295.943 C584.205,293.642 583.307,289.19 586.175,284.247 C591.125,275.715 598.483,271.005 607.668,270.77" fill="#6E4100"/>
    <path d="M409.125,270.777 C418.485,271.053 426.03,276.023 430.926,285.046 C433.169,289.182 432.048,293.446 428.573,295.573 C424.771,297.899 420.735,296.779 417.92,292.615 C412.127,284.047 405.07,283.5 397.904,291.065 C393.818,295.378 389.761,295.99 386.233,292.824 C382.768,289.713 382.854,285.113 386.654,280.917 C392.372,274.605 399.383,270.904 409.125,270.777" fill="#6E4100"/>
    <path d="M496.571,457.153 C496.466,452.522 499.245,448.876 503.246,447.987 C507.688,447 512.236,449.292 513.564,453.706 C514.576,457.073 515.881,460.206 517.54,463.303 C519.651,467.241 518.214,471.941 514.673,474.321 C510.979,476.805 506.49,476.455 503.332,473.074 C499.078,468.518 497.657,462.68 496.571,457.153" fill="#6E4100"/>
  </g>
</svg>
